<?xml version="1.0" encoding="UTF-8" standalone="no"?>
<!DOCTYPE svg PUBLIC "-//W3C//DTD SVG 1.1//EN" "http://www.w3.org/Graphics/SVG/1.1/DTD/svg11.dtd">
<svg width="100%" height="100%" viewBox="0 0 1500 1100" version="1.1" xmlns="http://www.w3.org/2000/svg" xmlns:xlink="http://www.w3.org/1999/xlink" xml:space="preserve" xmlns:serif="http://www.serif.com/" style="fill-rule:evenodd;clip-rule:evenodd;stroke-linejoin:round;stroke-miterlimit:2;">
    <g transform="matrix(1.18157,0,0,1.18157,-137.937,-105.989)">
        <g id="Layer1">
            <g transform="matrix(0.846334,-0,-0,0.846334,116.741,89.7017)">
                <path d="M996.616,458.071L1293.03,863.863L1439.82,383.256L996.616,458.071Z" style="fill:white;"/>
                <path d="M1178.65,518.566C1178.71,518.72 1178.9,518.174 1180.81,515.571C1182.6,513.143 1190.12,503.033 1199.72,489.37C1200.25,488.614 1200.87,487.912 1201.31,487.099C1201.39,486.96 1195.44,451.665 1191.37,434.193C1185.73,410.041 1180.63,392.947 1177.72,383.531C1177.71,383.522 1173.12,370.98 1166.51,355.898C1139.72,294.763 1109.54,258.499 1080.37,231.902C1056.6,210.235 1026.89,189.113 983.409,164.878C919.39,129.197 863.668,122.002 841.447,119.746C785.114,114.026 734.031,121.845 686.114,130.329C682.015,131.054 682.004,131.013 677.999,132.156C668.929,134.745 662.229,137.412 660.887,137.947C625.904,151.876 581.273,175.877 563.014,185.82C558.252,188.413 525.222,207.125 496.292,224.903C495.308,225.507 494.998,225.608 491.416,227.429C490.871,227.706 488.021,229.154 484.437,230.54C474.08,234.543 464.576,235.213 462.808,235.338C457.991,235.677 453.119,235.523 448.328,234.925C443.567,234.332 438.843,233.269 434.282,231.782C429.72,230.294 425.278,228.368 421.082,226.041C416.859,223.699 412.833,220.952 409.142,217.839C407.787,216.696 400.504,210.553 394.498,201.214L390.694,194.587C389.657,192.26 388.502,189.983 387.584,187.608C383.58,177.254 382.91,167.746 382.786,165.978C382.446,161.162 382.601,156.29 383.198,151.499C383.792,146.737 384.854,142.014 386.342,137.452C387.829,132.891 389.755,128.448 392.082,124.252C394.424,120.03 397.171,116.004 400.285,112.313C401.427,110.958 407.571,103.675 416.91,97.669C421.054,95.004 421.102,95.089 425.498,92.871C426.528,92.352 428.105,91.519 429.258,91.05C464.66,76.664 498.288,64.48 504.336,62.289C516.996,57.702 578.96,33.944 629.509,22.296C632.288,21.655 649.868,17.124 666.782,15.491C667.59,15.413 691.361,13.594 712.095,12.694C794.051,9.138 899.32,14.981 1009.1,84.668C1009.47,84.902 1023.2,93.339 1046.45,110.409C1098.8,148.838 1142.63,190.362 1177.01,248.79C1197.99,284.452 1213.58,323.635 1225.62,366.927C1226.61,370.474 1233.36,388.876 1242.36,424.034C1243.66,429.106 1248.38,445.648 1255.12,476.29C1255.16,476.467 1255.1,476.702 1255.24,476.822C1255.29,476.873 1266.41,484.514 1281.61,495.606C1282.1,495.963 1287.51,499.916 1287.72,500.069C1287.73,500.072 1288.83,511.147 1288.83,511.178C1288.82,514.773 1288.39,518.383 1287.63,521.895C1286.88,525.355 1285.75,528.749 1284.31,531.983C1282.87,535.21 1281.1,538.304 1279.05,541.182C1276.99,544.081 1274.63,546.79 1272.04,549.23C1269.41,551.708 1266.54,553.948 1263.47,555.865C1260.33,557.832 1256.99,559.513 1253.53,560.826C1253.51,560.832 1242.38,563.853 1242.38,563.853C1238.8,564.076 1235.23,564.663 1231.64,564.52C1228.12,564.379 1224.6,563.849 1221.17,563.006C1218.73,562.405 1205.57,559.166 1193.98,547.231C1191.48,544.652 1189.19,541.84 1187.2,538.848C1185.18,535.809 1183.42,532.577 1182,529.213C1180.11,524.73 1178.86,519.472 1178.65,518.566ZM1178.65,518.566C1178.64,518.553 1178.63,518.534 1178.63,518.512C1178.6,518.382 1178.61,518.409 1178.65,518.566Z" style="fill:white;"/>
            </g>
        </g>
    </g>
    <g transform="matrix(-1.18157,-1.447e-16,1.447e-16,-1.18157,1634.41,1208.29)">
        <g id="Layer11" serif:id="Layer1">
            <g transform="matrix(-0.846334,1.03646e-16,-1.03646e-16,-0.846334,1383.26,1022.62)">
                <path d="M499.86,644.232L203.445,238.441L56.661,719.048L499.86,644.232Z" style="fill:white;"/>
                <path d="M317.83,583.738C317.836,583.751 317.84,583.769 317.845,583.792C317.872,583.921 317.867,583.894 317.83,583.738ZM317.83,583.738C317.765,583.584 317.579,584.129 315.663,586.733C313.875,589.161 306.361,599.27 296.757,612.934C296.225,613.69 295.605,614.392 295.165,615.205C295.09,615.344 301.03,650.638 305.109,668.111C310.747,692.262 315.841,709.356 318.758,718.772C318.761,718.781 323.356,731.323 329.965,746.406C356.756,807.541 386.931,843.804 416.107,870.402C439.874,892.068 469.585,913.191 513.066,937.425C577.086,973.107 632.807,980.302 655.028,982.558C711.362,988.278 762.444,980.459 810.362,971.975C814.461,971.249 814.472,971.29 818.476,970.147C827.547,967.559 834.246,964.891 835.589,964.357C870.571,950.428 915.203,926.426 933.461,916.483C938.224,913.89 971.253,895.178 1000.18,877.401C1001.17,876.796 1001.48,876.695 1005.06,874.875C1005.6,874.598 1008.46,873.149 1012.04,871.764C1022.39,867.76 1031.9,867.09 1033.67,866.966C1038.48,866.627 1043.36,866.781 1048.15,867.378C1052.91,867.972 1057.63,869.034 1062.19,870.522C1066.76,872.009 1071.2,873.935 1075.39,876.262C1079.62,878.604 1083.64,881.351 1087.33,884.465C1088.69,885.607 1095.97,891.751 1101.98,901.09L1105.78,907.717C1106.82,910.043 1107.97,912.32 1108.89,914.696C1112.9,925.05 1113.57,934.557 1113.69,936.325C1114.03,941.142 1113.88,946.013 1113.28,950.805C1112.68,955.566 1111.62,960.29 1110.13,964.851C1108.65,969.413 1106.72,973.855 1104.39,978.051C1102.05,982.274 1099.3,986.3 1096.19,989.991C1095.05,991.346 1088.9,998.629 1079.57,1004.63C1075.42,1007.3 1075.37,1007.22 1070.98,1009.43C1069.95,1009.95 1068.37,1010.78 1067.22,1011.25C1031.82,1025.64 998.187,1037.82 992.14,1040.02C979.48,1044.6 917.516,1068.36 866.967,1080.01C864.188,1080.65 846.608,1085.18 829.693,1086.81C828.885,1086.89 805.114,1088.71 784.381,1089.61C702.425,1093.16 597.155,1087.32 487.375,1017.63C487.007,1017.4 473.277,1008.96 450.023,991.894C397.674,953.465 353.841,911.942 319.465,853.513C298.484,817.852 282.893,778.668 270.853,735.376C269.866,731.83 263.12,713.428 254.112,678.27C252.812,673.197 248.098,656.656 241.356,626.014C241.317,625.836 241.376,625.601 241.24,625.481C241.183,625.431 230.062,617.789 214.867,606.697C214.378,606.34 208.961,602.387 208.755,602.234C208.751,602.232 207.643,591.156 207.643,591.125C207.659,587.531 208.081,583.921 208.845,580.409C209.597,576.949 210.728,573.555 212.167,570.32C213.603,567.093 215.378,564 217.425,561.121C219.486,558.223 221.844,555.513 224.432,553.074C227.061,550.596 229.94,548.356 233.002,546.439C236.143,544.472 239.485,542.79 242.95,541.477C242.966,541.472 254.091,538.451 254.099,538.45C257.676,538.228 261.249,537.641 264.83,537.784C268.355,537.925 271.878,538.455 275.303,539.298C277.745,539.899 290.906,543.138 302.491,555.073C304.995,557.652 307.282,560.463 309.273,563.455C311.295,566.495 313.06,569.727 314.478,573.091C316.368,577.574 317.618,582.831 317.83,583.738Z" style="fill:white;"/>
            </g>
        </g>
    </g>
    <g transform="matrix(1.18157,0,0,1.18157,-135.339,-94.8455)">
        <circle cx="747.802" cy="554.503" r="158.579" style="fill:white;"/>
    </g>
</svg>
